<svg xmlns="http://www.w3.org/2000/svg" xmlns:xlink="http://www.w3.org/1999/xlink" id="图层_1" x="0" y="0" version="1.1" viewBox="0 0 30 30" style="enable-background:new 0 0 30 30" xml:space="preserve"><style type="text/css">.st1{fill:none;stroke:#fff;stroke-width:2.4306;stroke-miterlimit:10}.st2{fill:#fff}</style><g><path d="M11.6,11c0.4,0.4,0.6,0.9,0.6,1.5c0,0.6-0.2,1.1-0.6,1.4c-0.4,0.4-0.9,0.6-1.5,0.6c-0.6,0-1.1-0.2-1.5-0.6 c-0.4-0.4-0.6-0.9-0.6-1.4s0.2-1.1,0.6-1.5c0.4-0.4,0.9-0.6,1.5-0.6C10.8,10.4,11.2,10.6,11.6,11z M24.6,18.4V6.7H5.4v12l1.8-1.8 c0.3-0.3,0.6-0.4,1-0.4c0.4,0,0.7,0.1,1,0.4l1.8,1.8l5.8-7c0.3-0.3,0.6-0.5,1.1-0.5c0.4,0,0.8,0.2,1.1,0.5 C18.8,11.6,24.6,18.4,24.6,18.4z M25.6,5.7C25.9,6,26,6.3,26,6.7v16.1c0,0.4-0.1,0.7-0.4,1c-0.3,0.3-0.6,0.4-1,0.4H5.4 c-0.4,0-0.7-0.1-1-0.4c-0.3-0.3-0.4-0.6-0.4-1V6.7c0-0.4,0.1-0.7,0.4-1c0.3-0.3,0.6-0.4,1-0.4h19.3C25,5.3,25.3,5.4,25.6,5.7z" class="st2"/><path d="M24.3,21.5H5.7c-0.2,0-0.3-0.2-0.3-0.3V7c0-0.2,0.2-0.3,0.3-0.3h18.6c0.2,0,0.3,0.2,0.3,0.3v14.2 C24.6,21.3,24.5,21.5,24.3,21.5z" class="st1"/></g></svg>